<?xml version="1.0" encoding="utf-8"?>
<!-- Generator: Adobe Illustrator 26.0.3, SVG Export Plug-In . SVG Version: 6.00 Build 0)  -->
<svg version="1.1" id="Layer_1" xmlns="http://www.w3.org/2000/svg" xmlns:xlink="http://www.w3.org/1999/xlink" x="0px" y="0px"
	 viewBox="0 0 100 57.58" style="enable-background:new 0 0 100 57.58;" xml:space="preserve">
<style type="text/css">
	.st0{fill:#FFFFFF;}
</style>
<g>
	<path class="st0" d="M99.98,31.97c0.04-2.22-0.33-4.19-1.59-6.09c-2.93-4.39-5.7-8.88-8.53-13.33c-0.96-1.5-2.34-2.48-4.09-2.69
		c-1.33-0.16-2.69-0.03-4.15-0.03c0.21-0.57,0.41-1,0.55-1.46c0.45-1.47,0.86-2.95,1.32-4.41c0.72-2.34-0.64-4.07-3.08-3.95
		c-2.72,0.13-5.45,0.23-8.18,0.35c-4.3,0.18-8.6,0.38-12.89,0.56c-6.65,0.28-13.3,0.54-19.95,0.83c-7.48,0.32-14.96,0.66-22.44,0.99
		C13.72,2.88,10.48,3,7.24,3.13C5.78,3.2,4.81,3.99,4.48,5.42C4.12,6.94,3.73,8.46,3.47,10c-0.11,0.67-0.01,1.42,0.16,2.08
		c0.29,1.1,0.72,2.16,1.1,3.23c0.3,0.85,0.85,1.47,1.7,1.78c4.8,1.77,9.59,3.54,14.39,5.32c3.88,1.43,7.76,2.88,11.63,4.33
		c0.17,0.06,0.33,0.16,0.49,0.25c-0.01,0.05-0.03,0.1-0.04,0.16c-1.17,0.07-2.33,0.15-3.5,0.23c-7.57,0.5-15.15,1-22.72,1.5
		C4.92,29,3.16,29.12,1.4,29.24c-0.99,0.08-1.34,0.45-1.38,1.42c-0.01,0.38-0.01,0.77-0.01,1.16C0.01,35.35,0,38.88,0,42.41
		c0.01,1.9-0.01,3.81,0.02,5.72c0.01,0.96,0.44,1.35,1.41,1.35c0.91,0.01,1.82,0,2.74,0.01c0.57,0.01,0.99-0.2,1.35-0.66
		c1.87-2.35,3.76-4.68,5.62-7.03c0.27-0.34,0.56-0.48,0.99-0.47c1.23,0.02,2.47,0.01,3.71,0.01c7.14,0,14.29,0,21.43-0.01
		c0.5,0,0.8,0.16,1.08,0.58c1.8,2.73,3.64,5.42,5.42,8.17c0.49,0.75,1.05,1.05,1.94,1.05c6.72-0.03,13.44-0.01,20.16-0.01
		c0.67,0,1.34,0.01,2.01-0.02c0.69-0.03,1.19-0.53,1.2-1.14c0.01-0.65-0.49-1.15-1.21-1.18c-0.32-0.02-0.65-0.01-0.97-0.01
		c-6.8,0-13.6-0.01-20.4,0.01c-0.55,0-0.89-0.17-1.19-0.63c-1.29-1.99-2.62-3.96-3.94-5.94c-0.15-0.22-0.26-0.47-0.44-0.82
		c0.38-0.03,0.63-0.05,0.88-0.05h20.05c6.62,0,13.24-0.01,19.85,0.01c0.49,0,1.01,0.13,1.46,0.33c3.19,1.44,5.24,3.87,6.13,7.27
		c0.34,1.28,1.37,2.1,2.69,2.15c0.37,0.02,0.74,0.01,1.1,0.01c0.91,0,1.83,0,2.74,0.01c2.77,0.01,4.2-1.53,4.17-4.29
		C99.95,41.88,99.91,36.92,99.98,31.97z M73.26,38.17c0,0.84-0.02,0.86-0.85,0.86h-9.49c-2.96,0-5.93,0-8.89,0.01
		c-0.61,0-1.21,0.09-1.82,0.08c-0.95-0.01-1.9-0.07-2.84-0.1c-0.33-0.01-0.65,0.01-0.97,0.01c-5.22,0.01-10.44,0.03-15.65,0.03
		c-7.12,0-14.25-0.01-21.37-0.04c-0.72,0-1.22,0.23-1.66,0.79c-1.79,2.28-3.62,4.54-5.43,6.8c-0.39,0.49-1.04,0.7-1.62,0.49
		c-0.14-0.05-0.25-0.24-0.31-0.38c-0.05-0.15-0.02-0.32-0.02-0.49V32.41c0-0.88,0.01-0.89,0.86-0.95
		c5.41-0.36,10.81-0.71,16.22-1.07c6.88-0.46,13.76-0.92,20.65-1.38c5.8-0.39,11.61-0.78,17.42-1.16c4.94-0.33,9.88-0.66,14.82-0.99
		c0.94-0.06,0.95-0.06,0.95,0.9V38.17z M73.27,23.71c0,0.54-0.16,0.75-0.72,0.79c-4.47,0.29-8.95,0.59-13.42,0.92
		c-0.59,0.05-0.96-0.11-1.32-0.61c-0.96-1.36-2-2.65-2.97-4c-0.84-1.17-2.09-1.47-3.36-1.76c-5.46-1.26-10.91-2.51-16.37-3.77
		c-2.63-0.61-5.25-1.24-7.88-1.83c-1.04-0.24-2.09-0.37-3.13-0.61c-0.58-0.13-1.14-0.38-1.7-0.57c-0.01-0.06-0.02-0.13-0.03-0.19
		c0.29-0.03,0.57-0.09,0.85-0.09c2.48,0.02,4.96,0.07,7.44,0.08c9.46,0.01,18.91,0,28.37,0c4.48,0,8.97,0.01,13.45-0.01
		c0.56,0,0.8,0.14,0.79,0.75C73.25,16.45,73.25,20.08,73.27,23.71z M95.75,27.65H83.09c-0.9-0.01-0.97-0.08-0.98-0.97
		c0-2.41-0.02-4.83,0-7.24c0-0.76,0.1-0.85,0.84-0.85c2.49-0.02,4.99-0.02,7.48,0.01c0.25,0.01,0.59,0.2,0.73,0.41
		c1.69,2.6,3.35,5.22,5.02,7.83c0.12,0.2,0.21,0.42,0.38,0.76C96.18,27.62,95.97,27.65,95.75,27.65z"/>
	<path class="st0" d="M73.26,27.76v10.41c0,0.84-0.02,0.86-0.85,0.86h-9.49c-2.96,0-5.93,0-8.89,0.01c-0.61,0-1.21,0.09-1.82,0.08
		c-0.95-0.01-1.9-0.07-2.84-0.1c-0.33-0.01-0.65,0.01-0.97,0.01c-5.22,0.01-10.44,0.03-15.65,0.03c-7.12,0-14.25-0.01-21.37-0.04
		c-0.72,0-1.22,0.23-1.66,0.79c-1.79,2.28-3.62,4.54-5.43,6.8c-0.39,0.49-1.04,0.7-1.62,0.49c-0.14-0.05-0.25-0.24-0.31-0.38
		c-0.05-0.15-0.02-0.32-0.02-0.49V32.41c0-0.88,0.01-0.89,0.86-0.95c5.41-0.36,10.81-0.71,16.22-1.07
		c6.88-0.46,13.76-0.92,20.65-1.38c5.8-0.39,11.61-0.78,17.42-1.16c4.94-0.33,9.88-0.66,14.82-0.99
		C73.25,26.8,73.26,26.8,73.26,27.76z"/>
	<path class="st0" d="M15.86,45.52c-3.36-0.02-6.06,2.67-6.08,6.05c-0.02,3.32,2.65,5.98,6.04,6c3.35,0.02,6.05-2.65,6.07-5.99
		C21.9,48.28,19.18,45.54,15.86,45.52z M15.66,55.27c-2.03-0.09-3.63-1.88-3.53-3.96c0.09-1.93,1.89-3.56,3.84-3.46
		c2.07,0.1,3.64,1.83,3.54,3.88C19.4,53.81,17.71,55.37,15.66,55.27z"/>
	<path class="st0" d="M19.51,51.73c-0.11,2.08-1.8,3.64-3.85,3.54c-2.03-0.09-3.63-1.88-3.53-3.96c0.09-1.93,1.89-3.56,3.84-3.46
		C18.04,47.95,19.61,49.68,19.51,51.73z"/>
	<path class="st0" d="M32.15,45.52c-3.36-0.03-6.08,2.67-6.11,6.05c-0.03,3.28,2.67,5.98,6.01,6c3.39,0.03,6.08-2.6,6.1-5.96
		C38.16,48.26,35.49,45.54,32.15,45.52z M32.1,55.27c-2.09-0.03-3.74-1.71-3.7-3.78c0.03-2.04,1.73-3.67,3.79-3.64
		c2.02,0.04,3.65,1.75,3.62,3.82C35.78,53.62,34.07,55.29,32.1,55.27z"/>
	<path class="st0" d="M35.81,51.67c-0.03,1.95-1.74,3.62-3.71,3.6c-2.09-0.03-3.74-1.71-3.7-3.78c0.03-2.04,1.73-3.67,3.79-3.64
		C34.21,47.89,35.84,49.6,35.81,51.67z"/>
	<path class="st0" d="M79.26,45.51c-3.35,0.02-6.01,2.72-6,6.08s2.64,5.99,6,5.99c3.43-0.01,6.08-2.64,6.07-6.05
		C85.32,48.2,82.59,45.49,79.26,45.51z M79.29,55.28c-2.04-0.01-3.72-1.7-3.71-3.73c0-2.03,1.71-3.71,3.74-3.7
		c2.04,0.02,3.7,1.7,3.69,3.75C82.99,53.58,81.27,55.29,79.29,55.28z"/>
	<path class="st0" d="M83.01,51.6c-0.02,1.98-1.74,3.69-3.72,3.68c-2.04-0.01-3.72-1.7-3.71-3.73c0-2.03,1.71-3.71,3.74-3.7
		C81.36,47.87,83.02,49.55,83.01,51.6z"/>
</g>
</svg>
